<?xml version="1.0" encoding="UTF-8" standalone="no"?>
<svg width="21px" height="17px" viewBox="0 0 21 17" version="1.1" xmlns="http://www.w3.org/2000/svg" xmlns:xlink="http://www.w3.org/1999/xlink">
    <g id="Page-1" stroke="none" stroke-width="1" fill="none" fill-rule="evenodd">
        <g id="Artboard" transform="translate(-1025.000000, -2971.000000)" fill-rule="nonzero" fill="#FFFFFF">
            <g id="footer" transform="translate(0.000000, 2960.000000)">
                <path d="M1025.93333,11 C1025.42837,11 1025,11.5380936 1025,12.172413 L1025,26.827587 C1025,27.4618918 1025.42837,28 1025.93333,28 L1045.06667,28 C1045.57163,28 1046,27.4618918 1046,26.827587 L1046,12.172413 C1046,11.5380936 1045.57163,11 1045.06667,11 L1025.93333,11 L1025.93333,11 Z M1027.77812,12.7586195 L1043.22187,12.7586195 L1035.5,20.150314 L1027.77812,12.7586195 Z M1026.4,13.6470887 L1035.07708,21.9547455 C1035.32716,22.192882 1035.67284,22.192882 1035.92292,21.9547455 L1044.6,13.6470887 L1044.6,26.2413805 L1026.4,26.2413805 L1026.4,13.6470887 Z" id="email-icon"></path>
            </g>
        </g>
    </g>
</svg>