<svg width='200' height='200' fill="#fff" xmlns:dc="http://purl.org/dc/elements/1.1/" xmlns:cc="http://creativecommons.org/ns#" xmlns:rdf="http://www.w3.org/1999/02/22-rdf-syntax-ns#" xmlns:svg="http://www.w3.org/2000/svg" xmlns="http://www.w3.org/2000/svg" xmlns:sodipodi="http://sodipodi.sourceforge.net/DTD/sodipodi-0.dtd" xmlns:inkscape="http://www.inkscape.org/namespaces/inkscape" version="1.1" x="0px" y="0px" viewBox="0 0 100 100"><g transform="translate(0,-952.36218)"><path style="text-indent:0;text-transform:none;direction:ltr;block-progression:tb;baseline-shift:baseline;color:#fff;enable-background:accumulate;" d="m 19.000001,983.36301 c -10.4740996,0 -18.99999935,8.52594 -18.99999935,18.99999 0,10.4741 8.52589975,19 18.99999935,19 l 19,0 a 3.0003,3.0003 0 1 0 0,-6 l -19,0 c -7.2539,0 -12.9999993,-5.7461 -12.9999993,-13 0,-7.25385 5.7460993,-12.99995 12.9999993,-12.99995 l 21,0 c 7.2539,0 13,5.7461 13,12.99995 a 3.0003,3.0003 0 1 0 6,0 c 0,-10.47405 -8.5259,-18.99999 -19,-18.99999 l -21,0 z m 42.7812,0 a 3.0020141,3.0020141 0 1 0 0.2188,6.00004 l 19,0 c 7.2539,0 13,5.7461 13,12.99995 0,7.2539 -5.7461,13 -13,13 l -21,0 c -7.2539,0 -13,-5.7461 -13,-13 a 3.0003,3.0003 0 1 0 -6,0 c 0,10.4741 8.5259,19 19,19 l 21,0 c 10.4741,0 18.999997,-8.5259 18.999997,-19 0,-10.47405 -8.525897,-18.99999 -18.999997,-18.99999 l -19,0 a 3.0003,3.0003 0 0 0 -0.2188,0 z" fill="#fff" fill-opacity="1" stroke="none" marker="none" visibility="visible" display="inline" overflow="visible"/></g></svg>