<?xml version="1.0" encoding="UTF-8"?>
<svg width="20px" height="20px" viewBox="0 0 20 20" version="1.1" xmlns="http://www.w3.org/2000/svg" xmlns:xlink="http://www.w3.org/1999/xlink">
    <!-- Generator: Sketch 46.2 (44496) - http://www.bohemiancoding.com/sketch -->
    <title>moment</title>
    <desc>Created with Sketch.</desc>
    <defs></defs>
    <g id="Page-1" stroke="none" stroke-width="1" fill="none" fill-rule="evenodd">
        <g id="Artboard" transform="translate(-46.000000, -2.000000)" fill="#FFFFFF">
            <path d="M56,22 C50.4771525,22 46,17.5228475 46,12 C46,6.4771525 50.4771525,2 56,2 C61.5228475,2 66,6.4771525 66,12 C66,17.5228475 61.5228475,22 56,22 Z M61.9017436,10.8370583 C62.0609369,10.7256777 62.0359822,10.4271535 61.7583262,10.3541071 L58.0007904,9.69004916 L56.2510982,6.15846837 C56.1363643,5.94717721 55.820846,5.94717721 55.7347956,6.15846837 L53.9851034,9.69004916 L50.2562511,10.3239226 C50.0715295,10.3725196 49.8882421,10.6305967 50.0841502,10.8370583 L52.7517138,13.6740949 L52.1780442,17.6285598 C52.1180957,17.8806 52.4141092,18.0767989 52.5796129,17.9605888 L55.9929469,16.1797062 L59.4065677,17.9608906 C59.525891,18.0876653 59.8698059,17.8875424 59.8078496,17.6288617 L59.23418,13.6743967 L61.9017436,10.8370583 Z" id="moment"></path>
        </g>
    </g>
</svg>