<?xml version="1.0" encoding="UTF-8"?>
<svg width="20px" height="20px" viewBox="0 0 20 20" version="1.1" xmlns="http://www.w3.org/2000/svg" xmlns:xlink="http://www.w3.org/1999/xlink">
    <!-- Generator: Sketch 46.2 (44496) - http://www.bohemiancoding.com/sketch -->
    <title>moment-locked</title>
    <desc>Created with Sketch.</desc>
    <defs></defs>
    <g id="Page-1" stroke="none" stroke-width="1" fill="none" fill-rule="evenodd">
        <g id="Artboard" transform="translate(-112.000000, -2.000000)" fill="#FFFFFF">
            <path d="M122,22 C116.477153,22 112,17.5228475 112,12 C112,6.4771525 116.477153,2 122,2 C127.522847,2 132,6.4771525 132,12 C132,17.5228475 127.522847,22 122,22 Z M121.998934,6 C120.188063,6 118.709063,7.3783459 118.709063,9.07733663 L118.709063,10.4437231 C118.622897,10.4620364 118.535416,10.4761253 118.449277,10.4955145 C118.184358,10.5556514 118,10.7823268 118,11.0372809 L118,15.909232 C118,16.1458284 118.159383,16.361603 118.400299,16.4370695 C120.800986,17.1876435 123.200067,17.1876435 125.599649,16.4370695 C125.839538,16.3615857 126,16.1458284 126,15.909232 L126,11.0372809 C125.998947,10.7833533 125.814536,10.5546642 125.550697,10.4955145 C125.463479,10.4751381 125.375997,10.4620364 125.288779,10.4437231 L125.288779,9.07733663 C125.288779,7.3783459 123.815253,6 121.998934,6 Z M121.998934,7.3165842 C123.036842,7.3165842 123.879154,8.10750467 123.879154,9.07733663 L123.879154,10.2106741 C122.625384,10.0607627 121.371431,10.0607627 120.116556,10.2106741 L120.116556,9.07733663 C120.116556,8.10750467 120.962132,7.3165842 121.998934,7.3165842 Z M122.000776,12.1984983 C122.435789,12.1984983 122.790768,12.5275526 122.790768,12.9354757 C122.790768,13.1700264 122.670467,13.3784746 122.488399,13.5130909 L122.688574,15.080641 L121.310873,15.080641 L121.513128,13.5130909 C121.32998,13.3784746 121.210785,13.171048 121.210785,12.9354757 C121.210785,12.5285693 121.564685,12.1984983 122.000776,12.1984983 Z" id="moment-locked"></path>
        </g>
    </g>
</svg>