<?xml version="1.0" encoding="UTF-8"?>
<svg width="20px" height="20px" viewBox="0 0 20 20" version="1.1" xmlns="http://www.w3.org/2000/svg" xmlns:xlink="http://www.w3.org/1999/xlink">
    <!-- Generator: Sketch 46.2 (44496) - http://www.bohemiancoding.com/sketch -->
    <title>moment-happy</title>
    <desc>Created with Sketch.</desc>
    <defs></defs>
    <g id="Page-1" stroke="none" stroke-width="1" fill="none" fill-rule="evenodd">
        <g id="Artboard" transform="translate(-156.000000, -2.000000)" fill="#FFFFFF">
            <path d="M166,22 C160.477153,22 156,17.5228475 156,12 C156,6.4771525 160.477153,2 166,2 C171.522847,2 176,6.4771525 176,12 C176,17.5228475 171.522847,22 166,22 Z M162.470588,8 C161.658382,8 161,8.65840588 161,9.47058235 C161,10.2827882 161.658382,10.9411706 162.470588,10.9411706 C163.282794,10.9411706 163.941176,10.2827882 163.941176,9.47058235 C163.941176,8.65840588 163.282794,8 162.470588,8 Z M169.529412,8 C168.717206,8 168.058824,8.65840588 168.058824,9.47058235 C168.058824,10.2827882 168.717206,10.9411706 169.529412,10.9411706 C170.341618,10.9411706 171,10.2827882 171,9.47058235 C171,8.65840588 170.341618,8 169.529412,8 Z M166,17.8199781 C167.892665,17.8199781 169.57795,16.9175664 170.595588,15.522184 C170.718729,15.3514321 170.741421,15.1279558 170.655116,14.9359366 C170.568811,14.7439174 170.386621,14.6125274 170.177175,14.5912601 C169.967729,14.5699928 169.762847,14.6620791 169.639706,14.8328311 C168.842991,15.9253017 167.517865,16.6435076 166,16.6435076 C164.482135,16.6435076 163.157009,15.9253017 162.360294,14.8328311 C162.237153,14.6620791 162.032271,14.5699928 161.822825,14.5912601 C161.613379,14.6125274 161.431189,14.7439174 161.344884,14.9359366 C161.258579,15.1279558 161.281271,15.3514321 161.404412,15.522184 C162.42205,16.9175664 164.107335,17.8199781 166,17.8199781 Z" id="moment-happy"></path>
        </g>
    </g>
</svg>