<?xml version="1.0" encoding="UTF-8"?>
<svg width="20px" height="20px" viewBox="0 0 20 20" version="1.1" xmlns="http://www.w3.org/2000/svg" xmlns:xlink="http://www.w3.org/1999/xlink">
    <!-- Generator: Sketch 46.2 (44496) - http://www.bohemiancoding.com/sketch -->
    <title>moment-funding</title>
    <desc>Created with Sketch.</desc>
    <defs></defs>
    <g id="Page-1" stroke="none" stroke-width="1" fill="none" fill-rule="evenodd">
        <g id="Artboard" transform="translate(-24.000000, -2.000000)" fill="#FFFFFF">
            <path d="M34,22 C28.4771525,22 24,17.5228475 24,12 C24,6.4771525 28.4771525,2 34,2 C39.5228475,2 44,6.4771525 44,12 C44,17.5228475 39.5228475,22 34,22 Z M35.7892377,10.3255269 L36.9327354,9.17798595 C36.6636758,8.92817986 36.3654725,8.71740913 36.0381166,8.54566745 C35.7107607,8.37392576 35.3318407,8.25683091 34.9013453,8.19437939 L34.9013453,7 L33.3946188,7 L33.3946188,8.21779859 C32.739907,8.34270164 32.2309435,8.6003103 31.867713,8.99063232 C31.5044825,9.38095433 31.32287,9.87275269 31.32287,10.4660422 C31.32287,10.8095255 31.4080709,11.1022626 31.5784753,11.3442623 C31.7488798,11.5862619 31.9641243,11.7970327 32.2242152,11.9765808 C32.4843062,12.1561289 32.7623304,12.3103038 33.058296,12.4391101 C33.3542616,12.5679163 33.6322857,12.6908659 33.8923767,12.8079625 C34.1524677,12.9250591 34.3677122,13.0441056 34.5381166,13.1651054 C34.708521,13.2861052 34.793722,13.4246674 34.793722,13.5807963 C34.793722,13.807183 34.7219738,13.9730674 34.5784753,14.0784543 C34.4349769,14.1838413 34.1928268,14.236534 33.8520179,14.236534 C33.565021,14.236534 33.2757862,14.1857929 32.9843049,14.0843091 C32.6928237,13.9828254 32.3632305,13.8149895 31.9955157,13.5807963 L31,14.9391101 C31.3408089,15.204529 31.7286974,15.409445 32.1636771,15.5538642 C32.5986569,15.6982833 33.0089667,15.7900076 33.3946188,15.8290398 L33.3946188,17 L34.9013453,17 L34.9013453,15.7587822 C35.609869,15.6104598 36.1367696,15.3294322 36.4820628,14.9156909 C36.827356,14.5019495 37,14.0101512 37,13.440281 C37,13.0889912 36.9147991,12.7884478 36.7443946,12.5386417 C36.5739902,12.2888356 36.3587457,12.0741617 36.0986547,11.8946136 C35.8385637,11.7150655 35.5605396,11.5628422 35.264574,11.4379391 C34.9686084,11.3130361 34.6905843,11.1959412 34.4304933,11.0866511 C34.1704023,10.9773609 33.9551578,10.8680724 33.7847534,10.7587822 C33.6143489,10.649492 33.529148,10.5206877 33.529148,10.3723653 C33.529148,10.1381721 33.6008961,9.97814251 33.7443946,9.89227166 C33.8878931,9.80640082 34.1031376,9.76346604 34.3901345,9.76346604 C34.6412569,9.76346604 34.8766805,9.81030398 35.0964126,9.90398126 C35.3161446,9.99765855 35.547084,10.1381724 35.7892377,10.3255269 Z" id="moment-funding"></path>
        </g>
    </g>
</svg>