<?xml version="1.0" encoding="UTF-8"?>
<svg width="20px" height="20px" viewBox="0 0 20 20" version="1.1" xmlns="http://www.w3.org/2000/svg" xmlns:xlink="http://www.w3.org/1999/xlink">
    <!-- Generator: Sketch 46.2 (44496) - http://www.bohemiancoding.com/sketch -->
    <title>moment-quote</title>
    <desc>Created with Sketch.</desc>
    <defs></defs>
    <g id="Page-1" stroke="none" stroke-width="1" fill="none" fill-rule="evenodd">
        <g id="Artboard" transform="translate(-178.000000, -2.000000)" fill="#FFFFFF">
            <path d="M188,22 C193.522847,22 198,17.5228475 198,12 C198,6.4771525 193.522847,2 188,2 C182.477153,2 178,6.4771525 178,12 C178,17.5228475 182.477153,22 188,22 Z M183,14.4171123 C183.733337,14.1176456 184.283332,13.7504478 184.65,13.315508 C185.016669,12.8805682 185.2,12.3422492 185.2,11.7005348 C185.154166,11.7147951 185.077778,11.7219251 184.970833,11.7219251 C184.420831,11.7219251 183.954863,11.565064 183.572917,11.2513369 C183.19097,10.9376098 183,10.5098066 183,9.96791444 C183,9.36898096 183.183332,8.89126738 183.55,8.53475936 C183.916669,8.17825134 184.390275,8 184.970833,8 C185.78056,8 186.387845,8.27450706 186.792708,8.82352941 C187.197572,9.37255176 187.4,10.1390325 187.4,11.1229947 C187.4,12.1925187 187.109725,13.1372508 186.529167,13.9572193 C185.948608,14.7771877 185.047228,15.4581078 183.825,16 L183,14.4171123 Z M188.5,14.4171123 C189.233337,14.1176456 189.783332,13.7504478 190.15,13.315508 C190.516669,12.8805682 190.7,12.3422492 190.7,11.7005348 C190.654166,11.7147951 190.577778,11.7219251 190.470833,11.7219251 C189.920831,11.7219251 189.454863,11.565064 189.072917,11.2513369 C188.69097,10.9376098 188.5,10.5098066 188.5,9.96791444 C188.5,9.36898096 188.683332,8.89126738 189.05,8.53475936 C189.416669,8.17825134 189.890275,8 190.470833,8 C191.28056,8 191.887845,8.27450706 192.292708,8.82352941 C192.697572,9.37255176 192.9,10.1390325 192.9,11.1229947 C192.9,12.1925187 192.609725,13.1372508 192.029167,13.9572193 C191.448608,14.7771877 190.547228,15.4581078 189.325,16 L188.5,14.4171123 Z" id="moment-quote"></path>
        </g>
    </g>
</svg>