<?xml version="1.0" encoding="UTF-8"?>
<svg width="20px" height="20px" viewBox="0 0 20 20" version="1.1" xmlns="http://www.w3.org/2000/svg" xmlns:xlink="http://www.w3.org/1999/xlink">
    <!-- Generator: Sketch 46.2 (44496) - http://www.bohemiancoding.com/sketch -->
    <title>moment-sad</title>
    <desc>Created with Sketch.</desc>
    <defs></defs>
    <g id="Page-1" stroke="none" stroke-width="1" fill="none" fill-rule="evenodd">
        <g id="Artboard" transform="translate(-90.000000, -2.000000)" fill="#FFFFFF">
            <path d="M100,22 C94.4771525,22 90,17.5228475 90,12 C90,6.4771525 94.4771525,2 100,2 C105.522847,2 110,6.4771525 110,12 C110,17.5228475 105.522847,22 100,22 Z M96.4705882,8 C95.6583824,8 95,8.65840588 95,9.47058235 C95,10.2827882 95.6583824,10.9411706 96.4705882,10.9411706 C97.2827941,10.9411706 97.9411765,10.2827882 97.9411765,9.47058235 C97.9411765,8.65840588 97.2827941,8 96.4705882,8 Z M103.529412,8 C102.717206,8 102.058824,8.65840588 102.058824,9.47058235 C102.058824,10.2827882 102.717206,10.9411706 103.529412,10.9411706 C104.341618,10.9411706 105,10.2827882 105,9.47058235 C105,8.65840588 104.341618,8 103.529412,8 Z M100,13.5882382 C98.1073353,13.5882382 96.42205,14.49065 95.4044118,15.8860324 C95.2812707,16.0567843 95.2585788,16.2802605 95.3448838,16.4722798 C95.4311888,16.664299 95.6133789,16.795689 95.8228249,16.8169563 C96.032271,16.8382236 96.2371531,16.7461372 96.3602941,16.5753853 C97.1570088,15.4829147 98.4821353,14.7647088 100,14.7647088 C101.517865,14.7647088 102.842991,15.4829147 103.639706,16.5753853 C103.762847,16.7461372 103.967729,16.8382236 104.177175,16.8169563 C104.386621,16.795689 104.568811,16.664299 104.655116,16.4722798 C104.741421,16.2802605 104.718729,16.0567843 104.595588,15.8860324 C103.57795,14.49065 101.892665,13.5882382 100,13.5882382 Z" id="moment-sad"></path>
        </g>
    </g>
</svg>