<svg fill="white" xmlns="http://www.w3.org/2000/svg" xmlns:xlink="http://www.w3.org/1999/xlink" version="1.1" x="0px" y="0px" viewBox="0 0 100 100" enable-background="new 0 0 100 100" xml:space="preserve"><path d="M90.11,39.324c1.053,1,1.578,2.234,1.578,3.713c0,1.417-0.525,2.657-1.578,3.708L67.896,69.098  c-1.541,1.559-2.871,2.087-3.988,1.605c-1.116-0.458-1.671-1.769-1.671-3.912V51.859c-7.896,0.072-14.858,0.925-20.858,2.566  c-6,1.643-11.065,3.859-15.199,6.662c-4.137,2.807-7.375,6.111-9.73,9.912c-2.35,3.803-3.828,7.882-4.43,12.259  c-0.121,1-0.686,1.495-1.682,1.495h-0.092c-0.984,0-1.551-0.495-1.671-1.495c-0.183-1.529-0.266-3.063-0.266-4.616  c0-6.292,1.07-12.237,3.233-17.792c2.156-5.576,5.442-10.433,9.864-14.605c4.421-4.151,10.014-7.457,16.791-9.892  c6.766-2.458,14.786-3.713,24.04-3.765V19.335c0-2.182,0.545-3.489,1.635-3.935c1.079-0.459,2.427,0.094,4.024,1.626L90.11,39.324  L90.11,39.324z"/></svg>