<?xml version="1.0" encoding="UTF-8" standalone="no"?>
<svg width="19px" height="19px" viewBox="0 0 19 19" version="1.1" xmlns="http://www.w3.org/2000/svg" xmlns:xlink="http://www.w3.org/1999/xlink">
    <defs></defs>
    <g id="Page-1" stroke="none" stroke-width="1" fill="none" fill-rule="evenodd">
        <g id="Artboard" transform="translate(-1109.000000, -2970.000000)" fill-rule="nonzero" fill="#FFFFFF">
            <g id="footer" transform="translate(0.000000, 2960.000000)">
                <path d="M1118.5,10 C1113.25329,10 1109,14.253291 1109,19.5 C1109,24.746709 1113.25329,29 1118.5,29 C1123.74671,29 1128,24.746709 1128,19.5 C1128,14.253291 1123.74671,10 1118.5,10 Z M1124.14163,25.141627 C1123.40835,25.8748711 1122.55498,26.4503633 1121.60505,26.8521465 C1121.36377,26.9541973 1121.11873,27.0437793 1120.87025,27.121041 L1120.87025,25.6972656 C1120.87025,24.9488809 1120.6136,24.3984375 1120.10023,24.0458984 C1120.42189,24.0149863 1120.71717,23.9716797 1120.98622,23.9160156 C1121.25526,23.8603516 1121.53981,23.7799355 1121.83973,23.6748047 C1122.13972,23.5696738 1122.40877,23.4444297 1122.64686,23.2990723 C1122.88503,23.1537148 1123.11385,22.9650879 1123.33338,22.7331543 C1123.553,22.5012207 1123.73695,22.238375 1123.88539,21.9445801 C1124.03382,21.6507852 1124.15139,21.2982461 1124.23793,20.8869629 C1124.32454,20.4756797 1124.36781,20.0226113 1124.36781,19.527832 C1124.36781,18.5691855 1124.0555,17.7527793 1123.4308,17.0786133 C1123.71535,16.3364258 1123.6844,15.5292969 1123.33802,14.6572266 L1123.10609,14.6293945 C1122.94533,14.6108398 1122.65614,14.6788613 1122.23866,14.8334961 C1121.82118,14.9881309 1121.35267,15.2416992 1120.83314,15.5942383 C1120.09719,15.3901367 1119.33333,15.2880859 1118.54167,15.2880859 C1117.74382,15.2880859 1116.98308,15.3901367 1116.25945,15.5942383 C1115.93166,15.371582 1115.62087,15.1875937 1115.32707,15.0422363 C1115.03328,14.8968789 1114.79827,14.7979453 1114.622,14.7453613 C1114.44573,14.6927773 1114.28181,14.6603066 1114.1303,14.6479492 C1113.97878,14.6355918 1113.88137,14.6324746 1113.83806,14.6386719 C1113.79475,14.6448691 1113.76384,14.6510293 1113.74529,14.6572266 C1113.39895,15.5354941 1113.368,16.342623 1113.65251,17.0786133 C1113.02785,17.7527793 1112.7155,18.5691855 1112.7155,19.527832 C1112.7155,20.0226113 1112.75881,20.4756797 1112.84538,20.8869629 C1112.93196,21.2982461 1113.04949,21.6507852 1113.19792,21.9445801 C1113.34636,22.238375 1113.53035,22.5012207 1113.74993,22.7331543 C1113.9695,22.9650879 1114.19832,23.1537148 1114.43645,23.2990723 C1114.67458,23.4444297 1114.94362,23.5696738 1115.24358,23.6748047 C1115.54353,23.7799355 1115.82805,23.8603516 1116.09709,23.9160156 C1116.36614,23.9716797 1116.66145,24.0149863 1116.98308,24.0458984 C1116.47591,24.3922402 1116.22234,24.9427207 1116.22234,25.6972656 L1116.22234,27.1487988 C1115.9422,27.0654141 1115.66607,26.9668887 1115.3948,26.8521465 C1114.44491,26.4503633 1113.59151,25.8748711 1112.85826,25.141627 C1112.12505,24.4084199 1111.54953,23.5549785 1111.14778,22.6050527 C1110.73223,21.6224707 1110.52148,20.5777676 1110.52148,19.5 C1110.52148,18.4222324 1110.73223,17.3775293 1111.14785,16.394873 C1111.54964,15.4449844 1112.12513,14.5915801 1112.85834,13.8583359 C1113.59154,13.1250918 1114.44498,12.5495996 1115.39487,12.1478535 C1116.37753,11.7322285 1117.42223,11.5214844 1118.5,11.5214844 C1119.57777,11.5214844 1120.62247,11.7322285 1121.60516,12.1478535 C1122.55509,12.5496367 1123.40846,13.1251289 1124.14174,13.8583359 C1124.87495,14.591543 1125.45044,15.4449844 1125.85218,16.394873 C1126.26773,17.3775293 1126.47852,18.4222324 1126.47852,19.5 C1126.47852,20.5777676 1126.26773,21.6224707 1125.85215,22.605127 C1125.4504,23.5549785 1124.87483,24.408457 1124.14163,25.141627 Z" id="github-icon"></path>
            </g>
        </g>
    </g>
</svg>