<svg fill="white" xmlns="http://www.w3.org/2000/svg" xmlns:xlink="http://www.w3.org/1999/xlink" version="1.1" x="0px" y="0px" viewBox="0 0 100 100" enable-background="new 0 0 100 100" xml:space="preserve"><path d="M41.3,54.5l13.2-13.2c0.8-0.8,2-0.8,2.8,0l1.4,1.4c0.8,0.8,0.8,2,0,2.8L45.5,58.7c-0.8,0.8-2,0.8-2.8,0l-1.4-1.4  C40.5,56.5,40.5,55.2,41.3,54.5z M53.3,58.3c-0.8-0.8-2-0.8-2.8,0L39.7,69.1c-0.451,0.452-1.164,0.355-1.4,0L31,61.8  c-0.451-0.451-0.354-1.164,0-1.399l10.8-10.8c0.8-0.8,0.8-2,0-2.8l-1.4-1.4c-0.8-0.8-2-0.8-2.8,0L26.9,55.9  c-3.137,3.136-2.777,7.522-0.2,10.1l7.3,7.3c2.815,2.815,7.239,2.661,10.1-0.2l10.6-10.6c0.8-0.8,0.8-2,0-2.8L53.3,58.3z M73.3,34.1  c-1.7-1.7-5.7-5.7-7.399-7.4c-2.793-2.791-7.195-2.643-9.801,0.1L45.3,37.5c-0.8,0.8-0.8,2,0,2.8l1.4,1.4c0.8,0.8,2,0.8,2.8,0  l10.8-10.8c0.45-0.451,1.163-0.354,1.4,0l7.3,7.3c0.45,0.451,0.354,1.163,0,1.4L58.3,50.5c-0.8,0.8-0.8,2,0,2.8l1.4,1.4  c0.8,0.8,2,0.8,2.8,0l10.8-10.8C75.902,41.298,76.105,36.904,73.3,34.1z"/></svg>